REM DIRINDEX 1\2,1\3,1\4,1\5,1\6
REM DIRNAME "folder01","folder02","folder03","folder04","folder05","folder06"
TITLE ""
FILE "Disc3Track59.mp3" MP3
  TRACK 01 AUDIO
    TITLE "3:cjc161_05887"
    INDEX 01 00:00:00
  TRACK 02 AUDIO
    TITLE "4:cjc161_05888"
    INDEX 01 00:01:18
  TRACK 03 AUDIO
    TITLE "5:cjc161_05889"
    INDEX 01 00:02:09
  TRACK 04 AUDIO
    TITLE "0:"
    INDEX 01 00:03:42
  TRACK 05 AUDIO
    TITLE "3:cjc161_05890"
    INDEX 01 00:04:06
  TRACK 06 AUDIO
    TITLE "4:cjc161_05891"
    INDEX 01 00:05:51
  TRACK 07 AUDIO
    TITLE "5:cjc161_05892"
    INDEX 01 00:06:50
  TRACK 08 AUDIO
    TITLE "6:cjc161_05893"
    INDEX 01 00:08:18
  TRACK 09 AUDIO
    TITLE "0:"
    INDEX 01 00:10:13
  TRACK 10 AUDIO
    TITLE "3:cjc161_05894"
    INDEX 01 00:10:44
  TRACK 11 AUDIO
    TITLE "4:cjc161_05895"
    INDEX 01 00:12:13
  TRACK 12 AUDIO
    TITLE "5:cjc161_05896"
    INDEX 01 00:14:01
  TRACK 13 AUDIO
    TITLE "6:cjc161_05897"
    INDEX 01 00:15:45
  TRACK 14 AUDIO
    TITLE "0:"
    INDEX 01 00:21:09
  TRACK 15 AUDIO
    TITLE "3:cjc161_05898"
    INDEX 01 00:21:38
  TRACK 16 AUDIO
    TITLE "4:cjc161_05899"
    INDEX 01 00:23:03
  TRACK 17 AUDIO
    TITLE "5:cjc161_05900"
    INDEX 01 00:25:22
  TRACK 18 AUDIO
    TITLE "0:"
    INDEX 01 00:26:59
  TRACK 19 AUDIO
    TITLE "3:cjc161_05901"
    INDEX 01 00:27:25
  TRACK 20 AUDIO
    TITLE "4:cjc161_05902"
    INDEX 01 00:28:61
  TRACK 21 AUDIO
    TITLE "5:cjc161_05903"
    INDEX 01 00:31:38
  TRACK 22 AUDIO
    TITLE "6:cjc161_05904"
    INDEX 01 00:32:71
  TRACK 23 AUDIO
    TITLE "0:"
    INDEX 01 00:36:51
  TRACK 24 AUDIO
    TITLE "3:cjc161_05905"
    INDEX 01 00:37:04
  TRACK 25 AUDIO
    TITLE "4:cjc161_05906"
    INDEX 01 00:38:30
  TRACK 26 AUDIO
    TITLE "5:cjc161_05907"
    INDEX 01 00:40:14
  TRACK 27 AUDIO
    TITLE "6:cjc161_05908"
    INDEX 01 00:41:37
  TRACK 28 AUDIO
    TITLE "0:"
    INDEX 01 00:44:33
  TRACK 29 AUDIO
    TITLE "3:cjc161_05909"
    INDEX 01 00:44:62
  TRACK 30 AUDIO
    TITLE "4:cjc161_05910"
    INDEX 01 00:46:06
  TRACK 31 AUDIO
    TITLE "5:cjc161_05911"
    INDEX 01 00:48:05
  TRACK 32 AUDIO
    TITLE "6:cjc161_05912"
    INDEX 01 00:49:21
  TRACK 33 AUDIO
    TITLE "0:"
    INDEX 01 00:51:08
  TRACK 34 AUDIO
    TITLE "3:cjc161_05913"
    INDEX 01 00:51:39
  TRACK 35 AUDIO
    TITLE "4:cjc161_05914"
    INDEX 01 00:52:62
  TRACK 36 AUDIO
    TITLE "5:cjc161_05915"
    INDEX 01 00:55:11
  TRACK 37 AUDIO
    TITLE "6:cjc161_05916"
    INDEX 01 00:56:34
  TRACK 38 AUDIO
    TITLE "0:"
    INDEX 01 00:58:37
  TRACK 39 AUDIO
    TITLE "3:cjc161_05917"
    INDEX 01 00:58:68
  TRACK 40 AUDIO
    TITLE "4:cjc161_05918"
    INDEX 01 01:00:18
  TRACK 41 AUDIO
    TITLE "5:cjc161_05919"
    INDEX 01 01:01:24
  TRACK 42 AUDIO
    TITLE "6:cjc161_05920"
    INDEX 01 01:02:47
  TRACK 43 AUDIO
    TITLE "0:"
    INDEX 01 01:04:40
  TRACK 44 AUDIO
    TITLE "3:cjc161_05921"
    INDEX 01 01:04:69
  TRACK 45 AUDIO
    TITLE "4:cjc161_05922"
    INDEX 01 01:06:03
  TRACK 46 AUDIO
    TITLE "5:cjc161_05923"
    INDEX 01 01:07:58
  TRACK 47 AUDIO
    TITLE "6:cjc161_05924"
    INDEX 01 01:08:67
  TRACK 48 AUDIO
    TITLE "0:"
    INDEX 01 01:12:25
  TRACK 49 AUDIO
    TITLE "3:cjc161_05925"
    INDEX 01 01:12:59
  TRACK 50 AUDIO
    TITLE "4:cjc161_05926"
    INDEX 01 01:13:70
  TRACK 51 AUDIO
    TITLE "5:cjc161_05927"
    INDEX 01 01:15:08
  TRACK 52 AUDIO
    TITLE "6:cjc161_05928"
    INDEX 01 01:16:13
  TRACK 53 AUDIO
    TITLE "0:"
    INDEX 01 01:17:62
  TRACK 54 AUDIO
    TITLE "3:cjc161_05929"
    INDEX 01 01:18:18
  TRACK 55 AUDIO
    TITLE "4:cjc161_05930"
    INDEX 01 01:19:45
  TRACK 56 AUDIO
    TITLE "5:cjc161_05931"
    INDEX 01 01:21:54
  TRACK 57 AUDIO
    TITLE "6:cjc161_05932"
    INDEX 01 01:23:04
  TRACK 58 AUDIO
    TITLE "0:"
    INDEX 01 01:26:10
  TRACK 59 AUDIO
    TITLE "3:cjc161_05933"
    INDEX 01 01:26:41
  TRACK 60 AUDIO
    TITLE "4:cjc161_05934"
    INDEX 01 01:28:07
  TRACK 61 AUDIO
    TITLE "5:cjc161_05935"
    INDEX 01 01:30:04
  TRACK 62 AUDIO
    TITLE "6:cjc161_05936"
    INDEX 01 01:31:42
  TRACK 63 AUDIO
    TITLE "0:"
    INDEX 01 01:35:34
  TRACK 64 AUDIO
    TITLE "3:cjc161_05937"
    INDEX 01 01:35:66
  TRACK 65 AUDIO
    TITLE "4:cjc161_05938"
    INDEX 01 01:37:31
  TRACK 66 AUDIO
    TITLE "5:cjc161_05939"
    INDEX 01 01:38:43
  TRACK 67 AUDIO
    TITLE "0:"
    INDEX 01 01:40:08
